G04 (created by PCBNEW (2013-07-07 BZR 4022)-stable) date 1/16/2014 9:48:59 PM*
%MOIN*%
G04 Gerber Fmt 3.4, Leading zero omitted, Abs format*
%FSLAX34Y34*%
G01*
G70*
G90*
G04 APERTURE LIST*
%ADD10C,0.00590551*%
%ADD11C,0.005*%
%ADD12C,0.00472441*%
G04 APERTURE END LIST*
G54D10*
G54D11*
X75750Y-17050D02*
X75750Y-17950D01*
X75750Y-17950D02*
X75250Y-17950D01*
X75250Y-17950D02*
X75250Y-17050D01*
X75250Y-17050D02*
X75750Y-17050D01*
X76550Y-17050D02*
X76550Y-17950D01*
X76550Y-17950D02*
X76050Y-17950D01*
X76050Y-17950D02*
X76050Y-17050D01*
X76050Y-17050D02*
X76550Y-17050D01*
X73650Y-18500D02*
X73650Y-17600D01*
X73650Y-17600D02*
X74150Y-17600D01*
X74150Y-17600D02*
X74150Y-18500D01*
X74150Y-18500D02*
X73650Y-18500D01*
X72150Y-17600D02*
X72150Y-18500D01*
X72150Y-18500D02*
X71650Y-18500D01*
X71650Y-18500D02*
X71650Y-17600D01*
X71650Y-17600D02*
X72150Y-17600D01*
X75000Y-17050D02*
X75000Y-17950D01*
X75000Y-17950D02*
X74500Y-17950D01*
X74500Y-17950D02*
X74500Y-17050D01*
X74500Y-17050D02*
X75000Y-17050D01*
X70550Y-17950D02*
X70550Y-17050D01*
X70550Y-17050D02*
X71050Y-17050D01*
X71050Y-17050D02*
X71050Y-17950D01*
X71050Y-17950D02*
X70550Y-17950D01*
G54D10*
X73480Y-16521D02*
G75*
G03X73480Y-16521I-27J0D01*
G74*
G01*
G54D12*
X75457Y-18379D02*
X75445Y-18391D01*
X75408Y-18403D01*
X75384Y-18403D01*
X75347Y-18391D01*
X75323Y-18367D01*
X75311Y-18342D01*
X75298Y-18293D01*
X75298Y-18257D01*
X75311Y-18208D01*
X75323Y-18184D01*
X75347Y-18159D01*
X75384Y-18147D01*
X75408Y-18147D01*
X75445Y-18159D01*
X75457Y-18172D01*
X75554Y-18172D02*
X75567Y-18159D01*
X75591Y-18147D01*
X75652Y-18147D01*
X75676Y-18159D01*
X75688Y-18172D01*
X75701Y-18196D01*
X75701Y-18220D01*
X75688Y-18257D01*
X75542Y-18403D01*
X75701Y-18403D01*
X76257Y-18379D02*
X76245Y-18391D01*
X76208Y-18403D01*
X76184Y-18403D01*
X76147Y-18391D01*
X76123Y-18367D01*
X76111Y-18342D01*
X76098Y-18293D01*
X76098Y-18257D01*
X76111Y-18208D01*
X76123Y-18184D01*
X76147Y-18159D01*
X76184Y-18147D01*
X76208Y-18147D01*
X76245Y-18159D01*
X76257Y-18172D01*
X76501Y-18403D02*
X76354Y-18403D01*
X76427Y-18403D02*
X76427Y-18147D01*
X76403Y-18184D01*
X76379Y-18208D01*
X76354Y-18220D01*
X73857Y-17453D02*
X73772Y-17331D01*
X73711Y-17453D02*
X73711Y-17197D01*
X73808Y-17197D01*
X73832Y-17209D01*
X73845Y-17222D01*
X73857Y-17246D01*
X73857Y-17282D01*
X73845Y-17307D01*
X73832Y-17319D01*
X73808Y-17331D01*
X73711Y-17331D01*
X73954Y-17222D02*
X73967Y-17209D01*
X73991Y-17197D01*
X74052Y-17197D01*
X74076Y-17209D01*
X74088Y-17222D01*
X74101Y-17246D01*
X74101Y-17270D01*
X74088Y-17307D01*
X73942Y-17453D01*
X74101Y-17453D01*
X71857Y-17429D02*
X71845Y-17441D01*
X71808Y-17453D01*
X71784Y-17453D01*
X71747Y-17441D01*
X71723Y-17417D01*
X71711Y-17392D01*
X71698Y-17343D01*
X71698Y-17307D01*
X71711Y-17258D01*
X71723Y-17234D01*
X71747Y-17209D01*
X71784Y-17197D01*
X71808Y-17197D01*
X71845Y-17209D01*
X71857Y-17222D01*
X71942Y-17197D02*
X72101Y-17197D01*
X72015Y-17295D01*
X72052Y-17295D01*
X72076Y-17307D01*
X72088Y-17319D01*
X72101Y-17343D01*
X72101Y-17404D01*
X72088Y-17429D01*
X72076Y-17441D01*
X72052Y-17453D01*
X71979Y-17453D01*
X71954Y-17441D01*
X71942Y-17429D01*
X74707Y-18403D02*
X74622Y-18281D01*
X74561Y-18403D02*
X74561Y-18147D01*
X74658Y-18147D01*
X74682Y-18159D01*
X74695Y-18172D01*
X74707Y-18196D01*
X74707Y-18232D01*
X74695Y-18257D01*
X74682Y-18269D01*
X74658Y-18281D01*
X74561Y-18281D01*
X74951Y-18403D02*
X74804Y-18403D01*
X74877Y-18403D02*
X74877Y-18147D01*
X74853Y-18184D01*
X74829Y-18208D01*
X74804Y-18220D01*
X70757Y-18379D02*
X70745Y-18391D01*
X70708Y-18403D01*
X70684Y-18403D01*
X70647Y-18391D01*
X70623Y-18367D01*
X70611Y-18342D01*
X70598Y-18293D01*
X70598Y-18257D01*
X70611Y-18208D01*
X70623Y-18184D01*
X70647Y-18159D01*
X70684Y-18147D01*
X70708Y-18147D01*
X70745Y-18159D01*
X70757Y-18172D01*
X70976Y-18232D02*
X70976Y-18403D01*
X70915Y-18135D02*
X70854Y-18318D01*
X71013Y-18318D01*
X69786Y-18247D02*
X69786Y-18430D01*
X69774Y-18467D01*
X69750Y-18491D01*
X69713Y-18503D01*
X69689Y-18503D01*
X69908Y-18503D02*
X69908Y-18247D01*
X70006Y-18247D01*
X70030Y-18259D01*
X70042Y-18272D01*
X70054Y-18296D01*
X70054Y-18332D01*
X70042Y-18357D01*
X70030Y-18369D01*
X70006Y-18381D01*
X69908Y-18381D01*
X70298Y-18503D02*
X70152Y-18503D01*
X70225Y-18503D02*
X70225Y-18247D01*
X70201Y-18284D01*
X70176Y-18308D01*
X70152Y-18320D01*
X69824Y-16293D02*
X70119Y-16195D01*
X69824Y-16096D01*
X70119Y-15998D02*
X69824Y-15998D01*
X69824Y-15928D01*
X69838Y-15885D01*
X69866Y-15857D01*
X69894Y-15843D01*
X69950Y-15829D01*
X69992Y-15829D01*
X70049Y-15843D01*
X70077Y-15857D01*
X70105Y-15885D01*
X70119Y-15928D01*
X70119Y-15998D01*
X70119Y-15703D02*
X69824Y-15703D01*
X69824Y-15632D01*
X69838Y-15590D01*
X69866Y-15562D01*
X69894Y-15548D01*
X69950Y-15534D01*
X69992Y-15534D01*
X70049Y-15548D01*
X70077Y-15562D01*
X70105Y-15590D01*
X70119Y-15632D01*
X70119Y-15703D01*
X71824Y-16718D02*
X72119Y-16620D01*
X71824Y-16521D01*
X72119Y-16423D02*
X71824Y-16423D01*
X71824Y-16353D01*
X71838Y-16310D01*
X71866Y-16282D01*
X71894Y-16268D01*
X71950Y-16254D01*
X71992Y-16254D01*
X72049Y-16268D01*
X72077Y-16282D01*
X72105Y-16310D01*
X72119Y-16353D01*
X72119Y-16423D01*
X72119Y-16128D02*
X71824Y-16128D01*
X71824Y-16057D01*
X71838Y-16015D01*
X71866Y-15987D01*
X71894Y-15973D01*
X71950Y-15959D01*
X71992Y-15959D01*
X72049Y-15973D01*
X72077Y-15987D01*
X72105Y-16015D01*
X72119Y-16057D01*
X72119Y-16128D01*
X72119Y-15832D02*
X71824Y-15832D01*
X71824Y-15635D02*
X71824Y-15579D01*
X71838Y-15551D01*
X71866Y-15523D01*
X71922Y-15509D01*
X72021Y-15509D01*
X72077Y-15523D01*
X72105Y-15551D01*
X72119Y-15579D01*
X72119Y-15635D01*
X72105Y-15664D01*
X72077Y-15692D01*
X72021Y-15706D01*
X71922Y-15706D01*
X71866Y-15692D01*
X71838Y-15664D01*
X71824Y-15635D01*
X70838Y-16124D02*
X70824Y-16153D01*
X70824Y-16195D01*
X70838Y-16237D01*
X70866Y-16265D01*
X70894Y-16279D01*
X70950Y-16293D01*
X70992Y-16293D01*
X71049Y-16279D01*
X71077Y-16265D01*
X71105Y-16237D01*
X71119Y-16195D01*
X71119Y-16167D01*
X71105Y-16124D01*
X71091Y-16110D01*
X70992Y-16110D01*
X70992Y-16167D01*
X71119Y-15984D02*
X70824Y-15984D01*
X71119Y-15815D01*
X70824Y-15815D01*
X71119Y-15675D02*
X70824Y-15675D01*
X70824Y-15604D01*
X70838Y-15562D01*
X70866Y-15534D01*
X70894Y-15520D01*
X70950Y-15506D01*
X70992Y-15506D01*
X71049Y-15520D01*
X71077Y-15534D01*
X71105Y-15562D01*
X71119Y-15604D01*
X71119Y-15675D01*
X73105Y-16251D02*
X73119Y-16209D01*
X73119Y-16139D01*
X73105Y-16110D01*
X73091Y-16096D01*
X73063Y-16082D01*
X73035Y-16082D01*
X73007Y-16096D01*
X72992Y-16110D01*
X72978Y-16139D01*
X72964Y-16195D01*
X72950Y-16223D01*
X72936Y-16237D01*
X72908Y-16251D01*
X72880Y-16251D01*
X72852Y-16237D01*
X72838Y-16223D01*
X72824Y-16195D01*
X72824Y-16124D01*
X72838Y-16082D01*
X73091Y-15787D02*
X73105Y-15801D01*
X73119Y-15843D01*
X73119Y-15871D01*
X73105Y-15914D01*
X73077Y-15942D01*
X73049Y-15956D01*
X72992Y-15970D01*
X72950Y-15970D01*
X72894Y-15956D01*
X72866Y-15942D01*
X72838Y-15914D01*
X72824Y-15871D01*
X72824Y-15843D01*
X72838Y-15801D01*
X72852Y-15787D01*
X73119Y-15520D02*
X73119Y-15660D01*
X72824Y-15660D01*
X74105Y-16258D02*
X74119Y-16216D01*
X74119Y-16146D01*
X74105Y-16117D01*
X74091Y-16103D01*
X74063Y-16089D01*
X74035Y-16089D01*
X74007Y-16103D01*
X73992Y-16117D01*
X73978Y-16146D01*
X73964Y-16202D01*
X73950Y-16230D01*
X73936Y-16244D01*
X73908Y-16258D01*
X73880Y-16258D01*
X73852Y-16244D01*
X73838Y-16230D01*
X73824Y-16202D01*
X73824Y-16132D01*
X73838Y-16089D01*
X74119Y-15963D02*
X73824Y-15963D01*
X73824Y-15892D01*
X73838Y-15850D01*
X73866Y-15822D01*
X73894Y-15808D01*
X73950Y-15794D01*
X73992Y-15794D01*
X74049Y-15808D01*
X74077Y-15822D01*
X74105Y-15850D01*
X74119Y-15892D01*
X74119Y-15963D01*
X74035Y-15682D02*
X74035Y-15541D01*
X74119Y-15710D02*
X73824Y-15611D01*
X74119Y-15513D01*
X75119Y-16357D02*
X74824Y-16357D01*
X75119Y-16217D02*
X74824Y-16217D01*
X75119Y-16048D01*
X74824Y-16048D01*
X74824Y-15950D02*
X74824Y-15781D01*
X75119Y-15865D02*
X74824Y-15865D01*
X75119Y-15528D02*
X75119Y-15696D01*
X75119Y-15612D02*
X74824Y-15612D01*
X74866Y-15640D01*
X74894Y-15668D01*
X74908Y-15696D01*
X76119Y-16357D02*
X75824Y-16357D01*
X76119Y-16217D02*
X75824Y-16217D01*
X76119Y-16048D01*
X75824Y-16048D01*
X75824Y-15950D02*
X75824Y-15781D01*
X76119Y-15865D02*
X75824Y-15865D01*
X75852Y-15696D02*
X75838Y-15682D01*
X75824Y-15654D01*
X75824Y-15584D01*
X75838Y-15556D01*
X75852Y-15542D01*
X75880Y-15528D01*
X75908Y-15528D01*
X75950Y-15542D01*
X76119Y-15710D01*
X76119Y-15528D01*
X72805Y-18047D02*
X72805Y-18254D01*
X72817Y-18279D01*
X72829Y-18291D01*
X72853Y-18303D01*
X72902Y-18303D01*
X72926Y-18291D01*
X72939Y-18279D01*
X72951Y-18254D01*
X72951Y-18047D01*
X73207Y-18303D02*
X73060Y-18303D01*
X73134Y-18303D02*
X73134Y-18047D01*
X73109Y-18084D01*
X73085Y-18108D01*
X73060Y-18120D01*
M02*
