G04 (created by PCBNEW (2013-07-07 BZR 4022)-stable) date 1/16/2014 9:48:59 PM*
%MOIN*%
G04 Gerber Fmt 3.4, Leading zero omitted, Abs format*
%FSLAX34Y34*%
G01*
G70*
G90*
G04 APERTURE LIST*
%ADD10C,0.00590551*%
%ADD11R,0.045X0.025*%
%ADD12C,0.0688976*%
%ADD13R,0.00885827X0.0393701*%
%ADD14C,0.021*%
%ADD15C,0.01*%
%ADD16C,0.005*%
G04 APERTURE END LIST*
G54D10*
G54D11*
X75500Y-17200D03*
X75500Y-17800D03*
X76300Y-17200D03*
X76300Y-17800D03*
X73900Y-18350D03*
X73900Y-17750D03*
X71900Y-17750D03*
X71900Y-18350D03*
X74750Y-17200D03*
X74750Y-17800D03*
X70800Y-17800D03*
X70800Y-17200D03*
G54D10*
G36*
X69753Y-17446D02*
X69852Y-17053D01*
X70147Y-17053D01*
X70246Y-17446D01*
X69753Y-17446D01*
X69753Y-17446D01*
G37*
G36*
X69852Y-17946D02*
X69753Y-17553D01*
X70246Y-17553D01*
X70147Y-17946D01*
X69852Y-17946D01*
X69852Y-17946D01*
G37*
G54D12*
X70000Y-15000D03*
X72000Y-15000D03*
X71000Y-15000D03*
X73000Y-15000D03*
X74000Y-15000D03*
X75000Y-15000D03*
X76000Y-15000D03*
G54D13*
X73314Y-16816D03*
X73157Y-16816D03*
X73000Y-16816D03*
X72842Y-16816D03*
X72685Y-16816D03*
X72685Y-17683D03*
X72842Y-17683D03*
X73000Y-17683D03*
X73157Y-17683D03*
X73314Y-17683D03*
G54D14*
X73400Y-15800D03*
X72650Y-16100D03*
X73750Y-16525D03*
X74225Y-16550D03*
X73575Y-17425D03*
X74000Y-16875D03*
X73350Y-16350D03*
X75500Y-16800D03*
X70300Y-16800D03*
X73600Y-16850D03*
G54D15*
X73000Y-16816D02*
X73000Y-16200D01*
X73000Y-16200D02*
X73400Y-15800D01*
X72685Y-16816D02*
X72650Y-16781D01*
X72650Y-16781D02*
X72650Y-16100D01*
X72842Y-16866D02*
X72842Y-17157D01*
X72300Y-17350D02*
X71900Y-17750D01*
X72650Y-17350D02*
X72300Y-17350D01*
X72842Y-17157D02*
X72650Y-17350D01*
X74700Y-16700D02*
X74375Y-16700D01*
X74700Y-17200D02*
X74700Y-16700D01*
X73750Y-15750D02*
X73000Y-15000D01*
X73750Y-16525D02*
X73750Y-15750D01*
X74375Y-16700D02*
X74225Y-16550D01*
X74700Y-17200D02*
X73164Y-17200D01*
X73164Y-17200D02*
X73157Y-17192D01*
X73157Y-16866D02*
X73157Y-17192D01*
X73900Y-17750D02*
X73575Y-17425D01*
X74000Y-16875D02*
X74000Y-15000D01*
X73314Y-17733D02*
X73883Y-17733D01*
X73883Y-17733D02*
X73900Y-17750D01*
X73350Y-16781D02*
X73350Y-16350D01*
X73314Y-16816D02*
X73350Y-16781D01*
X75500Y-16800D02*
X75500Y-17200D01*
X73314Y-16816D02*
X73348Y-16850D01*
X70300Y-16800D02*
X70000Y-16800D01*
X73348Y-16850D02*
X73600Y-16850D01*
X75500Y-17200D02*
X76300Y-17200D01*
X70000Y-17250D02*
X70000Y-16800D01*
X70000Y-16800D02*
X70000Y-15000D01*
X70800Y-17800D02*
X72000Y-16600D01*
X72000Y-16600D02*
X72000Y-15000D01*
X70800Y-17800D02*
X71050Y-18050D01*
X72425Y-18125D02*
X73000Y-18125D01*
X72350Y-18050D02*
X72425Y-18125D01*
X71050Y-18050D02*
X72350Y-18050D01*
X73000Y-17733D02*
X73000Y-18125D01*
X73225Y-18350D02*
X73900Y-18350D01*
X73000Y-18125D02*
X73225Y-18350D01*
X74700Y-17800D02*
X74150Y-18350D01*
X74150Y-18350D02*
X73900Y-18350D01*
X70000Y-17750D02*
X70750Y-17750D01*
X70750Y-17750D02*
X70800Y-17800D01*
G54D10*
G36*
X76655Y-18239D02*
X76650Y-18266D01*
X76650Y-17949D01*
X76650Y-17650D01*
X76631Y-17604D01*
X76610Y-17583D01*
X76610Y-17308D01*
X76610Y-17058D01*
X76597Y-17026D01*
X76573Y-17002D01*
X76541Y-16990D01*
X76508Y-16989D01*
X76429Y-16989D01*
X76429Y-14914D01*
X76364Y-14757D01*
X76243Y-14636D01*
X76085Y-14570D01*
X75914Y-14570D01*
X75757Y-14635D01*
X75636Y-14756D01*
X75570Y-14914D01*
X75570Y-15085D01*
X75635Y-15242D01*
X75756Y-15363D01*
X75914Y-15429D01*
X76085Y-15429D01*
X76242Y-15364D01*
X76363Y-15243D01*
X76429Y-15085D01*
X76429Y-14914D01*
X76429Y-16989D01*
X76058Y-16989D01*
X76026Y-17002D01*
X76002Y-17026D01*
X75990Y-17058D01*
X75990Y-17065D01*
X75810Y-17065D01*
X75810Y-17058D01*
X75797Y-17026D01*
X75773Y-17002D01*
X75741Y-16990D01*
X75708Y-16989D01*
X75635Y-16989D01*
X75635Y-16933D01*
X75660Y-16907D01*
X75689Y-16837D01*
X75690Y-16762D01*
X75661Y-16692D01*
X75607Y-16639D01*
X75537Y-16610D01*
X75462Y-16609D01*
X75429Y-16623D01*
X75429Y-14914D01*
X75364Y-14757D01*
X75243Y-14636D01*
X75085Y-14570D01*
X74914Y-14570D01*
X74757Y-14635D01*
X74636Y-14756D01*
X74570Y-14914D01*
X74570Y-15085D01*
X74635Y-15242D01*
X74756Y-15363D01*
X74914Y-15429D01*
X75085Y-15429D01*
X75242Y-15364D01*
X75363Y-15243D01*
X75429Y-15085D01*
X75429Y-14914D01*
X75429Y-16623D01*
X75392Y-16638D01*
X75339Y-16692D01*
X75310Y-16762D01*
X75309Y-16837D01*
X75338Y-16907D01*
X75365Y-16933D01*
X75365Y-16989D01*
X75258Y-16989D01*
X75226Y-17002D01*
X75202Y-17026D01*
X75190Y-17058D01*
X75189Y-17091D01*
X75189Y-17341D01*
X75202Y-17373D01*
X75226Y-17397D01*
X75258Y-17409D01*
X75291Y-17410D01*
X75741Y-17410D01*
X75773Y-17397D01*
X75797Y-17373D01*
X75809Y-17341D01*
X75809Y-17335D01*
X75989Y-17335D01*
X75989Y-17341D01*
X76002Y-17373D01*
X76026Y-17397D01*
X76058Y-17409D01*
X76091Y-17410D01*
X76541Y-17410D01*
X76573Y-17397D01*
X76597Y-17373D01*
X76609Y-17341D01*
X76610Y-17308D01*
X76610Y-17583D01*
X76595Y-17569D01*
X76549Y-17550D01*
X76500Y-17549D01*
X76356Y-17550D01*
X76325Y-17581D01*
X76325Y-17775D01*
X76618Y-17775D01*
X76650Y-17743D01*
X76650Y-17650D01*
X76650Y-17949D01*
X76650Y-17856D01*
X76618Y-17825D01*
X76325Y-17825D01*
X76325Y-18018D01*
X76356Y-18050D01*
X76500Y-18050D01*
X76549Y-18049D01*
X76595Y-18030D01*
X76631Y-17995D01*
X76650Y-17949D01*
X76650Y-18266D01*
X76622Y-18404D01*
X76535Y-18535D01*
X76404Y-18622D01*
X76275Y-18648D01*
X76275Y-18018D01*
X76275Y-17825D01*
X76275Y-17775D01*
X76275Y-17581D01*
X76243Y-17550D01*
X76099Y-17549D01*
X76050Y-17550D01*
X76004Y-17569D01*
X75968Y-17604D01*
X75949Y-17650D01*
X75950Y-17743D01*
X75981Y-17775D01*
X76275Y-17775D01*
X76275Y-17825D01*
X75981Y-17825D01*
X75950Y-17856D01*
X75949Y-17949D01*
X75968Y-17995D01*
X76004Y-18030D01*
X76050Y-18049D01*
X76099Y-18050D01*
X76243Y-18050D01*
X76275Y-18018D01*
X76275Y-18648D01*
X76240Y-18655D01*
X75850Y-18655D01*
X75850Y-17949D01*
X75850Y-17650D01*
X75831Y-17604D01*
X75795Y-17569D01*
X75749Y-17550D01*
X75700Y-17549D01*
X75556Y-17550D01*
X75525Y-17581D01*
X75525Y-17775D01*
X75818Y-17775D01*
X75850Y-17743D01*
X75850Y-17650D01*
X75850Y-17949D01*
X75850Y-17856D01*
X75818Y-17825D01*
X75525Y-17825D01*
X75525Y-18018D01*
X75556Y-18050D01*
X75700Y-18050D01*
X75749Y-18049D01*
X75795Y-18030D01*
X75831Y-17995D01*
X75850Y-17949D01*
X75850Y-18655D01*
X75475Y-18655D01*
X75475Y-18018D01*
X75475Y-17825D01*
X75475Y-17775D01*
X75475Y-17581D01*
X75443Y-17550D01*
X75299Y-17549D01*
X75250Y-17550D01*
X75204Y-17569D01*
X75168Y-17604D01*
X75149Y-17650D01*
X75150Y-17743D01*
X75181Y-17775D01*
X75475Y-17775D01*
X75475Y-17825D01*
X75181Y-17825D01*
X75150Y-17856D01*
X75149Y-17949D01*
X75168Y-17995D01*
X75204Y-18030D01*
X75250Y-18049D01*
X75299Y-18050D01*
X75443Y-18050D01*
X75475Y-18018D01*
X75475Y-18655D01*
X75060Y-18655D01*
X75060Y-17908D01*
X75060Y-17658D01*
X75047Y-17626D01*
X75023Y-17602D01*
X74991Y-17590D01*
X74958Y-17589D01*
X74508Y-17589D01*
X74476Y-17602D01*
X74452Y-17626D01*
X74440Y-17658D01*
X74439Y-17691D01*
X74439Y-17869D01*
X74161Y-18147D01*
X74141Y-18140D01*
X74108Y-18139D01*
X73658Y-18139D01*
X73626Y-18152D01*
X73602Y-18176D01*
X73590Y-18208D01*
X73590Y-18215D01*
X73280Y-18215D01*
X73135Y-18069D01*
X73135Y-18004D01*
X73104Y-18004D01*
X73104Y-18004D01*
X73135Y-18004D01*
X73135Y-17974D01*
X73135Y-17973D01*
X73135Y-17708D01*
X73130Y-17708D01*
X73129Y-17704D01*
X73129Y-17658D01*
X73135Y-17658D01*
X73135Y-17392D01*
X73104Y-17361D01*
X73088Y-17361D01*
X73042Y-17380D01*
X73021Y-17401D01*
X72978Y-17401D01*
X72957Y-17380D01*
X72911Y-17361D01*
X72895Y-17361D01*
X72864Y-17392D01*
X72864Y-17658D01*
X72870Y-17658D01*
X72870Y-17704D01*
X72869Y-17708D01*
X72864Y-17708D01*
X72864Y-17715D01*
X72830Y-17715D01*
X72823Y-17708D01*
X72820Y-17708D01*
X72707Y-17708D01*
X72704Y-17708D01*
X72696Y-17715D01*
X72662Y-17715D01*
X72662Y-17708D01*
X72546Y-17708D01*
X72515Y-17739D01*
X72515Y-17904D01*
X72534Y-17950D01*
X72569Y-17985D01*
X72579Y-17990D01*
X72480Y-17990D01*
X72445Y-17954D01*
X72401Y-17925D01*
X72350Y-17915D01*
X72200Y-17915D01*
X72209Y-17891D01*
X72210Y-17858D01*
X72210Y-17630D01*
X72355Y-17485D01*
X72515Y-17485D01*
X72515Y-17626D01*
X72546Y-17658D01*
X72662Y-17658D01*
X72662Y-17650D01*
X72696Y-17650D01*
X72704Y-17658D01*
X72707Y-17658D01*
X72820Y-17658D01*
X72823Y-17658D01*
X72854Y-17626D01*
X72854Y-17461D01*
X72835Y-17415D01*
X72820Y-17400D01*
X72820Y-17392D01*
X72809Y-17381D01*
X72937Y-17252D01*
X72967Y-17209D01*
X72977Y-17157D01*
X72977Y-17098D01*
X73022Y-17098D01*
X73022Y-17192D01*
X73032Y-17244D01*
X73062Y-17287D01*
X73069Y-17295D01*
X73113Y-17324D01*
X73164Y-17335D01*
X73406Y-17335D01*
X73385Y-17387D01*
X73385Y-17404D01*
X73376Y-17401D01*
X73342Y-17401D01*
X73293Y-17401D01*
X73272Y-17380D01*
X73226Y-17361D01*
X73210Y-17361D01*
X73179Y-17392D01*
X73179Y-17658D01*
X73185Y-17658D01*
X73185Y-17704D01*
X73184Y-17708D01*
X73179Y-17708D01*
X73179Y-17973D01*
X73210Y-18004D01*
X73226Y-18004D01*
X73272Y-17985D01*
X73293Y-17964D01*
X73376Y-17964D01*
X73407Y-17952D01*
X73431Y-17928D01*
X73444Y-17896D01*
X73444Y-17868D01*
X73589Y-17868D01*
X73589Y-17891D01*
X73602Y-17923D01*
X73626Y-17947D01*
X73658Y-17959D01*
X73691Y-17960D01*
X74141Y-17960D01*
X74173Y-17947D01*
X74197Y-17923D01*
X74209Y-17891D01*
X74210Y-17858D01*
X74210Y-17608D01*
X74197Y-17576D01*
X74173Y-17552D01*
X74141Y-17540D01*
X74108Y-17539D01*
X73880Y-17539D01*
X73765Y-17424D01*
X73765Y-17387D01*
X73743Y-17335D01*
X74439Y-17335D01*
X74439Y-17341D01*
X74452Y-17373D01*
X74476Y-17397D01*
X74508Y-17409D01*
X74541Y-17410D01*
X74991Y-17410D01*
X75023Y-17397D01*
X75047Y-17373D01*
X75059Y-17341D01*
X75060Y-17308D01*
X75060Y-17058D01*
X75047Y-17026D01*
X75023Y-17002D01*
X74991Y-16990D01*
X74958Y-16989D01*
X74835Y-16989D01*
X74835Y-16700D01*
X74824Y-16648D01*
X74795Y-16604D01*
X74751Y-16575D01*
X74700Y-16565D01*
X74430Y-16565D01*
X74415Y-16549D01*
X74415Y-16512D01*
X74386Y-16442D01*
X74332Y-16389D01*
X74262Y-16360D01*
X74187Y-16359D01*
X74135Y-16381D01*
X74135Y-15408D01*
X74242Y-15364D01*
X74363Y-15243D01*
X74429Y-15085D01*
X74429Y-14914D01*
X74364Y-14757D01*
X74243Y-14636D01*
X74085Y-14570D01*
X73914Y-14570D01*
X73757Y-14635D01*
X73636Y-14756D01*
X73570Y-14914D01*
X73570Y-15085D01*
X73635Y-15242D01*
X73756Y-15363D01*
X73865Y-15408D01*
X73865Y-15683D01*
X73845Y-15654D01*
X73845Y-15654D01*
X73384Y-15193D01*
X73429Y-15085D01*
X73429Y-14914D01*
X73364Y-14757D01*
X73243Y-14636D01*
X73085Y-14570D01*
X72914Y-14570D01*
X72757Y-14635D01*
X72636Y-14756D01*
X72570Y-14914D01*
X72570Y-15085D01*
X72635Y-15242D01*
X72756Y-15363D01*
X72914Y-15429D01*
X73085Y-15429D01*
X73193Y-15384D01*
X73419Y-15610D01*
X73362Y-15609D01*
X73292Y-15638D01*
X73239Y-15692D01*
X73210Y-15762D01*
X73210Y-15799D01*
X72904Y-16104D01*
X72875Y-16148D01*
X72865Y-16200D01*
X72865Y-16535D01*
X72785Y-16535D01*
X72785Y-16233D01*
X72810Y-16207D01*
X72839Y-16137D01*
X72840Y-16062D01*
X72811Y-15992D01*
X72757Y-15939D01*
X72687Y-15910D01*
X72612Y-15909D01*
X72542Y-15938D01*
X72489Y-15992D01*
X72460Y-16062D01*
X72459Y-16137D01*
X72488Y-16207D01*
X72515Y-16233D01*
X72515Y-16781D01*
X72525Y-16833D01*
X72554Y-16877D01*
X72555Y-16878D01*
X72555Y-17030D01*
X72568Y-17061D01*
X72592Y-17085D01*
X72623Y-17098D01*
X72657Y-17098D01*
X72707Y-17098D01*
X72707Y-17101D01*
X72594Y-17215D01*
X72300Y-17215D01*
X72248Y-17225D01*
X72204Y-17254D01*
X72204Y-17254D01*
X72204Y-17254D01*
X71919Y-17539D01*
X71658Y-17539D01*
X71626Y-17552D01*
X71602Y-17576D01*
X71590Y-17608D01*
X71589Y-17641D01*
X71589Y-17891D01*
X71599Y-17915D01*
X71110Y-17915D01*
X71110Y-17908D01*
X71110Y-17680D01*
X72095Y-16695D01*
X72095Y-16695D01*
X72095Y-16695D01*
X72124Y-16651D01*
X72124Y-16651D01*
X72134Y-16600D01*
X72135Y-16600D01*
X72135Y-15408D01*
X72242Y-15364D01*
X72363Y-15243D01*
X72429Y-15085D01*
X72429Y-14914D01*
X72364Y-14757D01*
X72243Y-14636D01*
X72085Y-14570D01*
X71914Y-14570D01*
X71757Y-14635D01*
X71636Y-14756D01*
X71570Y-14914D01*
X71570Y-15085D01*
X71635Y-15242D01*
X71756Y-15363D01*
X71865Y-15408D01*
X71865Y-16544D01*
X71470Y-16938D01*
X71470Y-15087D01*
X71468Y-14900D01*
X71401Y-14739D01*
X71333Y-14701D01*
X71298Y-14737D01*
X71298Y-14666D01*
X71260Y-14598D01*
X71087Y-14529D01*
X70900Y-14531D01*
X70739Y-14598D01*
X70701Y-14666D01*
X71000Y-14964D01*
X71298Y-14666D01*
X71298Y-14737D01*
X71035Y-15000D01*
X71333Y-15298D01*
X71401Y-15260D01*
X71470Y-15087D01*
X71470Y-16938D01*
X71298Y-17110D01*
X71298Y-15333D01*
X71000Y-15035D01*
X70964Y-15070D01*
X70964Y-15000D01*
X70666Y-14701D01*
X70598Y-14739D01*
X70529Y-14912D01*
X70531Y-15099D01*
X70598Y-15260D01*
X70666Y-15298D01*
X70964Y-15000D01*
X70964Y-15070D01*
X70701Y-15333D01*
X70739Y-15401D01*
X70912Y-15470D01*
X71099Y-15468D01*
X71260Y-15401D01*
X71298Y-15333D01*
X71298Y-17110D01*
X71150Y-17259D01*
X71150Y-17050D01*
X71131Y-17004D01*
X71095Y-16969D01*
X71049Y-16950D01*
X71000Y-16949D01*
X70856Y-16950D01*
X70825Y-16981D01*
X70825Y-17175D01*
X71118Y-17175D01*
X71150Y-17143D01*
X71150Y-17050D01*
X71150Y-17259D01*
X71150Y-17259D01*
X71150Y-17256D01*
X71118Y-17225D01*
X70825Y-17225D01*
X70825Y-17418D01*
X70856Y-17450D01*
X70959Y-17450D01*
X70819Y-17589D01*
X70775Y-17589D01*
X70775Y-17418D01*
X70775Y-17225D01*
X70775Y-17175D01*
X70775Y-16981D01*
X70743Y-16950D01*
X70599Y-16949D01*
X70550Y-16950D01*
X70504Y-16969D01*
X70468Y-17004D01*
X70449Y-17050D01*
X70450Y-17143D01*
X70481Y-17175D01*
X70775Y-17175D01*
X70775Y-17225D01*
X70481Y-17225D01*
X70450Y-17256D01*
X70449Y-17349D01*
X70468Y-17395D01*
X70504Y-17430D01*
X70550Y-17449D01*
X70599Y-17450D01*
X70743Y-17450D01*
X70775Y-17418D01*
X70775Y-17589D01*
X70558Y-17589D01*
X70526Y-17602D01*
X70514Y-17615D01*
X70331Y-17615D01*
X70331Y-17536D01*
X70318Y-17505D01*
X70313Y-17500D01*
X70318Y-17495D01*
X70331Y-17463D01*
X70331Y-17430D01*
X70331Y-17036D01*
X70318Y-17005D01*
X70303Y-16990D01*
X70337Y-16990D01*
X70407Y-16961D01*
X70460Y-16907D01*
X70489Y-16837D01*
X70490Y-16762D01*
X70461Y-16692D01*
X70407Y-16639D01*
X70337Y-16610D01*
X70262Y-16609D01*
X70192Y-16638D01*
X70166Y-16665D01*
X70135Y-16665D01*
X70135Y-15408D01*
X70242Y-15364D01*
X70363Y-15243D01*
X70429Y-15085D01*
X70429Y-14914D01*
X70364Y-14757D01*
X70243Y-14636D01*
X70085Y-14570D01*
X69914Y-14570D01*
X69757Y-14635D01*
X69636Y-14756D01*
X69570Y-14914D01*
X69570Y-15085D01*
X69635Y-15242D01*
X69756Y-15363D01*
X69865Y-15408D01*
X69865Y-16800D01*
X69865Y-16968D01*
X69737Y-16968D01*
X69705Y-16981D01*
X69681Y-17004D01*
X69668Y-17036D01*
X69668Y-17069D01*
X69668Y-17463D01*
X69681Y-17494D01*
X69686Y-17499D01*
X69681Y-17504D01*
X69668Y-17536D01*
X69668Y-17569D01*
X69668Y-17963D01*
X69681Y-17994D01*
X69705Y-18018D01*
X69736Y-18031D01*
X69770Y-18031D01*
X70262Y-18031D01*
X70294Y-18018D01*
X70318Y-17995D01*
X70331Y-17963D01*
X70331Y-17930D01*
X70331Y-17885D01*
X70489Y-17885D01*
X70489Y-17941D01*
X70502Y-17973D01*
X70526Y-17997D01*
X70558Y-18009D01*
X70591Y-18010D01*
X70819Y-18010D01*
X70954Y-18145D01*
X70954Y-18145D01*
X70998Y-18174D01*
X71050Y-18185D01*
X71556Y-18185D01*
X71549Y-18200D01*
X71550Y-18293D01*
X71581Y-18325D01*
X71875Y-18325D01*
X71875Y-18317D01*
X71925Y-18317D01*
X71925Y-18325D01*
X72218Y-18325D01*
X72250Y-18293D01*
X72250Y-18200D01*
X72243Y-18185D01*
X72294Y-18185D01*
X72329Y-18220D01*
X72329Y-18220D01*
X72373Y-18249D01*
X72373Y-18249D01*
X72425Y-18260D01*
X72944Y-18260D01*
X73129Y-18445D01*
X73173Y-18474D01*
X73225Y-18485D01*
X73589Y-18485D01*
X73589Y-18491D01*
X73602Y-18523D01*
X73626Y-18547D01*
X73658Y-18559D01*
X73691Y-18560D01*
X74141Y-18560D01*
X74173Y-18547D01*
X74197Y-18523D01*
X74209Y-18491D01*
X74210Y-18469D01*
X74245Y-18445D01*
X74680Y-18010D01*
X74991Y-18010D01*
X75023Y-17997D01*
X75047Y-17973D01*
X75059Y-17941D01*
X75060Y-17908D01*
X75060Y-18655D01*
X72250Y-18655D01*
X72250Y-18499D01*
X72250Y-18406D01*
X72218Y-18375D01*
X71925Y-18375D01*
X71925Y-18568D01*
X71956Y-18600D01*
X72100Y-18600D01*
X72149Y-18599D01*
X72195Y-18580D01*
X72231Y-18545D01*
X72250Y-18499D01*
X72250Y-18655D01*
X71875Y-18655D01*
X71875Y-18568D01*
X71875Y-18375D01*
X71581Y-18375D01*
X71550Y-18406D01*
X71549Y-18499D01*
X71568Y-18545D01*
X71604Y-18580D01*
X71650Y-18599D01*
X71699Y-18600D01*
X71843Y-18600D01*
X71875Y-18568D01*
X71875Y-18655D01*
X69760Y-18655D01*
X69595Y-18622D01*
X69464Y-18535D01*
X69377Y-18404D01*
X69344Y-18240D01*
X69344Y-14759D01*
X69377Y-14595D01*
X69464Y-14464D01*
X69595Y-14377D01*
X69760Y-14344D01*
X76240Y-14344D01*
X76404Y-14377D01*
X76535Y-14464D01*
X76622Y-14595D01*
X76655Y-14760D01*
X76655Y-18239D01*
X76655Y-18239D01*
G37*
G54D16*
X76655Y-18239D02*
X76650Y-18266D01*
X76650Y-17949D01*
X76650Y-17650D01*
X76631Y-17604D01*
X76610Y-17583D01*
X76610Y-17308D01*
X76610Y-17058D01*
X76597Y-17026D01*
X76573Y-17002D01*
X76541Y-16990D01*
X76508Y-16989D01*
X76429Y-16989D01*
X76429Y-14914D01*
X76364Y-14757D01*
X76243Y-14636D01*
X76085Y-14570D01*
X75914Y-14570D01*
X75757Y-14635D01*
X75636Y-14756D01*
X75570Y-14914D01*
X75570Y-15085D01*
X75635Y-15242D01*
X75756Y-15363D01*
X75914Y-15429D01*
X76085Y-15429D01*
X76242Y-15364D01*
X76363Y-15243D01*
X76429Y-15085D01*
X76429Y-14914D01*
X76429Y-16989D01*
X76058Y-16989D01*
X76026Y-17002D01*
X76002Y-17026D01*
X75990Y-17058D01*
X75990Y-17065D01*
X75810Y-17065D01*
X75810Y-17058D01*
X75797Y-17026D01*
X75773Y-17002D01*
X75741Y-16990D01*
X75708Y-16989D01*
X75635Y-16989D01*
X75635Y-16933D01*
X75660Y-16907D01*
X75689Y-16837D01*
X75690Y-16762D01*
X75661Y-16692D01*
X75607Y-16639D01*
X75537Y-16610D01*
X75462Y-16609D01*
X75429Y-16623D01*
X75429Y-14914D01*
X75364Y-14757D01*
X75243Y-14636D01*
X75085Y-14570D01*
X74914Y-14570D01*
X74757Y-14635D01*
X74636Y-14756D01*
X74570Y-14914D01*
X74570Y-15085D01*
X74635Y-15242D01*
X74756Y-15363D01*
X74914Y-15429D01*
X75085Y-15429D01*
X75242Y-15364D01*
X75363Y-15243D01*
X75429Y-15085D01*
X75429Y-14914D01*
X75429Y-16623D01*
X75392Y-16638D01*
X75339Y-16692D01*
X75310Y-16762D01*
X75309Y-16837D01*
X75338Y-16907D01*
X75365Y-16933D01*
X75365Y-16989D01*
X75258Y-16989D01*
X75226Y-17002D01*
X75202Y-17026D01*
X75190Y-17058D01*
X75189Y-17091D01*
X75189Y-17341D01*
X75202Y-17373D01*
X75226Y-17397D01*
X75258Y-17409D01*
X75291Y-17410D01*
X75741Y-17410D01*
X75773Y-17397D01*
X75797Y-17373D01*
X75809Y-17341D01*
X75809Y-17335D01*
X75989Y-17335D01*
X75989Y-17341D01*
X76002Y-17373D01*
X76026Y-17397D01*
X76058Y-17409D01*
X76091Y-17410D01*
X76541Y-17410D01*
X76573Y-17397D01*
X76597Y-17373D01*
X76609Y-17341D01*
X76610Y-17308D01*
X76610Y-17583D01*
X76595Y-17569D01*
X76549Y-17550D01*
X76500Y-17549D01*
X76356Y-17550D01*
X76325Y-17581D01*
X76325Y-17775D01*
X76618Y-17775D01*
X76650Y-17743D01*
X76650Y-17650D01*
X76650Y-17949D01*
X76650Y-17856D01*
X76618Y-17825D01*
X76325Y-17825D01*
X76325Y-18018D01*
X76356Y-18050D01*
X76500Y-18050D01*
X76549Y-18049D01*
X76595Y-18030D01*
X76631Y-17995D01*
X76650Y-17949D01*
X76650Y-18266D01*
X76622Y-18404D01*
X76535Y-18535D01*
X76404Y-18622D01*
X76275Y-18648D01*
X76275Y-18018D01*
X76275Y-17825D01*
X76275Y-17775D01*
X76275Y-17581D01*
X76243Y-17550D01*
X76099Y-17549D01*
X76050Y-17550D01*
X76004Y-17569D01*
X75968Y-17604D01*
X75949Y-17650D01*
X75950Y-17743D01*
X75981Y-17775D01*
X76275Y-17775D01*
X76275Y-17825D01*
X75981Y-17825D01*
X75950Y-17856D01*
X75949Y-17949D01*
X75968Y-17995D01*
X76004Y-18030D01*
X76050Y-18049D01*
X76099Y-18050D01*
X76243Y-18050D01*
X76275Y-18018D01*
X76275Y-18648D01*
X76240Y-18655D01*
X75850Y-18655D01*
X75850Y-17949D01*
X75850Y-17650D01*
X75831Y-17604D01*
X75795Y-17569D01*
X75749Y-17550D01*
X75700Y-17549D01*
X75556Y-17550D01*
X75525Y-17581D01*
X75525Y-17775D01*
X75818Y-17775D01*
X75850Y-17743D01*
X75850Y-17650D01*
X75850Y-17949D01*
X75850Y-17856D01*
X75818Y-17825D01*
X75525Y-17825D01*
X75525Y-18018D01*
X75556Y-18050D01*
X75700Y-18050D01*
X75749Y-18049D01*
X75795Y-18030D01*
X75831Y-17995D01*
X75850Y-17949D01*
X75850Y-18655D01*
X75475Y-18655D01*
X75475Y-18018D01*
X75475Y-17825D01*
X75475Y-17775D01*
X75475Y-17581D01*
X75443Y-17550D01*
X75299Y-17549D01*
X75250Y-17550D01*
X75204Y-17569D01*
X75168Y-17604D01*
X75149Y-17650D01*
X75150Y-17743D01*
X75181Y-17775D01*
X75475Y-17775D01*
X75475Y-17825D01*
X75181Y-17825D01*
X75150Y-17856D01*
X75149Y-17949D01*
X75168Y-17995D01*
X75204Y-18030D01*
X75250Y-18049D01*
X75299Y-18050D01*
X75443Y-18050D01*
X75475Y-18018D01*
X75475Y-18655D01*
X75060Y-18655D01*
X75060Y-17908D01*
X75060Y-17658D01*
X75047Y-17626D01*
X75023Y-17602D01*
X74991Y-17590D01*
X74958Y-17589D01*
X74508Y-17589D01*
X74476Y-17602D01*
X74452Y-17626D01*
X74440Y-17658D01*
X74439Y-17691D01*
X74439Y-17869D01*
X74161Y-18147D01*
X74141Y-18140D01*
X74108Y-18139D01*
X73658Y-18139D01*
X73626Y-18152D01*
X73602Y-18176D01*
X73590Y-18208D01*
X73590Y-18215D01*
X73280Y-18215D01*
X73135Y-18069D01*
X73135Y-18004D01*
X73104Y-18004D01*
X73104Y-18004D01*
X73135Y-18004D01*
X73135Y-17974D01*
X73135Y-17973D01*
X73135Y-17708D01*
X73130Y-17708D01*
X73129Y-17704D01*
X73129Y-17658D01*
X73135Y-17658D01*
X73135Y-17392D01*
X73104Y-17361D01*
X73088Y-17361D01*
X73042Y-17380D01*
X73021Y-17401D01*
X72978Y-17401D01*
X72957Y-17380D01*
X72911Y-17361D01*
X72895Y-17361D01*
X72864Y-17392D01*
X72864Y-17658D01*
X72870Y-17658D01*
X72870Y-17704D01*
X72869Y-17708D01*
X72864Y-17708D01*
X72864Y-17715D01*
X72830Y-17715D01*
X72823Y-17708D01*
X72820Y-17708D01*
X72707Y-17708D01*
X72704Y-17708D01*
X72696Y-17715D01*
X72662Y-17715D01*
X72662Y-17708D01*
X72546Y-17708D01*
X72515Y-17739D01*
X72515Y-17904D01*
X72534Y-17950D01*
X72569Y-17985D01*
X72579Y-17990D01*
X72480Y-17990D01*
X72445Y-17954D01*
X72401Y-17925D01*
X72350Y-17915D01*
X72200Y-17915D01*
X72209Y-17891D01*
X72210Y-17858D01*
X72210Y-17630D01*
X72355Y-17485D01*
X72515Y-17485D01*
X72515Y-17626D01*
X72546Y-17658D01*
X72662Y-17658D01*
X72662Y-17650D01*
X72696Y-17650D01*
X72704Y-17658D01*
X72707Y-17658D01*
X72820Y-17658D01*
X72823Y-17658D01*
X72854Y-17626D01*
X72854Y-17461D01*
X72835Y-17415D01*
X72820Y-17400D01*
X72820Y-17392D01*
X72809Y-17381D01*
X72937Y-17252D01*
X72967Y-17209D01*
X72977Y-17157D01*
X72977Y-17098D01*
X73022Y-17098D01*
X73022Y-17192D01*
X73032Y-17244D01*
X73062Y-17287D01*
X73069Y-17295D01*
X73113Y-17324D01*
X73164Y-17335D01*
X73406Y-17335D01*
X73385Y-17387D01*
X73385Y-17404D01*
X73376Y-17401D01*
X73342Y-17401D01*
X73293Y-17401D01*
X73272Y-17380D01*
X73226Y-17361D01*
X73210Y-17361D01*
X73179Y-17392D01*
X73179Y-17658D01*
X73185Y-17658D01*
X73185Y-17704D01*
X73184Y-17708D01*
X73179Y-17708D01*
X73179Y-17973D01*
X73210Y-18004D01*
X73226Y-18004D01*
X73272Y-17985D01*
X73293Y-17964D01*
X73376Y-17964D01*
X73407Y-17952D01*
X73431Y-17928D01*
X73444Y-17896D01*
X73444Y-17868D01*
X73589Y-17868D01*
X73589Y-17891D01*
X73602Y-17923D01*
X73626Y-17947D01*
X73658Y-17959D01*
X73691Y-17960D01*
X74141Y-17960D01*
X74173Y-17947D01*
X74197Y-17923D01*
X74209Y-17891D01*
X74210Y-17858D01*
X74210Y-17608D01*
X74197Y-17576D01*
X74173Y-17552D01*
X74141Y-17540D01*
X74108Y-17539D01*
X73880Y-17539D01*
X73765Y-17424D01*
X73765Y-17387D01*
X73743Y-17335D01*
X74439Y-17335D01*
X74439Y-17341D01*
X74452Y-17373D01*
X74476Y-17397D01*
X74508Y-17409D01*
X74541Y-17410D01*
X74991Y-17410D01*
X75023Y-17397D01*
X75047Y-17373D01*
X75059Y-17341D01*
X75060Y-17308D01*
X75060Y-17058D01*
X75047Y-17026D01*
X75023Y-17002D01*
X74991Y-16990D01*
X74958Y-16989D01*
X74835Y-16989D01*
X74835Y-16700D01*
X74824Y-16648D01*
X74795Y-16604D01*
X74751Y-16575D01*
X74700Y-16565D01*
X74430Y-16565D01*
X74415Y-16549D01*
X74415Y-16512D01*
X74386Y-16442D01*
X74332Y-16389D01*
X74262Y-16360D01*
X74187Y-16359D01*
X74135Y-16381D01*
X74135Y-15408D01*
X74242Y-15364D01*
X74363Y-15243D01*
X74429Y-15085D01*
X74429Y-14914D01*
X74364Y-14757D01*
X74243Y-14636D01*
X74085Y-14570D01*
X73914Y-14570D01*
X73757Y-14635D01*
X73636Y-14756D01*
X73570Y-14914D01*
X73570Y-15085D01*
X73635Y-15242D01*
X73756Y-15363D01*
X73865Y-15408D01*
X73865Y-15683D01*
X73845Y-15654D01*
X73845Y-15654D01*
X73384Y-15193D01*
X73429Y-15085D01*
X73429Y-14914D01*
X73364Y-14757D01*
X73243Y-14636D01*
X73085Y-14570D01*
X72914Y-14570D01*
X72757Y-14635D01*
X72636Y-14756D01*
X72570Y-14914D01*
X72570Y-15085D01*
X72635Y-15242D01*
X72756Y-15363D01*
X72914Y-15429D01*
X73085Y-15429D01*
X73193Y-15384D01*
X73419Y-15610D01*
X73362Y-15609D01*
X73292Y-15638D01*
X73239Y-15692D01*
X73210Y-15762D01*
X73210Y-15799D01*
X72904Y-16104D01*
X72875Y-16148D01*
X72865Y-16200D01*
X72865Y-16535D01*
X72785Y-16535D01*
X72785Y-16233D01*
X72810Y-16207D01*
X72839Y-16137D01*
X72840Y-16062D01*
X72811Y-15992D01*
X72757Y-15939D01*
X72687Y-15910D01*
X72612Y-15909D01*
X72542Y-15938D01*
X72489Y-15992D01*
X72460Y-16062D01*
X72459Y-16137D01*
X72488Y-16207D01*
X72515Y-16233D01*
X72515Y-16781D01*
X72525Y-16833D01*
X72554Y-16877D01*
X72555Y-16878D01*
X72555Y-17030D01*
X72568Y-17061D01*
X72592Y-17085D01*
X72623Y-17098D01*
X72657Y-17098D01*
X72707Y-17098D01*
X72707Y-17101D01*
X72594Y-17215D01*
X72300Y-17215D01*
X72248Y-17225D01*
X72204Y-17254D01*
X72204Y-17254D01*
X72204Y-17254D01*
X71919Y-17539D01*
X71658Y-17539D01*
X71626Y-17552D01*
X71602Y-17576D01*
X71590Y-17608D01*
X71589Y-17641D01*
X71589Y-17891D01*
X71599Y-17915D01*
X71110Y-17915D01*
X71110Y-17908D01*
X71110Y-17680D01*
X72095Y-16695D01*
X72095Y-16695D01*
X72095Y-16695D01*
X72124Y-16651D01*
X72124Y-16651D01*
X72134Y-16600D01*
X72135Y-16600D01*
X72135Y-15408D01*
X72242Y-15364D01*
X72363Y-15243D01*
X72429Y-15085D01*
X72429Y-14914D01*
X72364Y-14757D01*
X72243Y-14636D01*
X72085Y-14570D01*
X71914Y-14570D01*
X71757Y-14635D01*
X71636Y-14756D01*
X71570Y-14914D01*
X71570Y-15085D01*
X71635Y-15242D01*
X71756Y-15363D01*
X71865Y-15408D01*
X71865Y-16544D01*
X71470Y-16938D01*
X71470Y-15087D01*
X71468Y-14900D01*
X71401Y-14739D01*
X71333Y-14701D01*
X71298Y-14737D01*
X71298Y-14666D01*
X71260Y-14598D01*
X71087Y-14529D01*
X70900Y-14531D01*
X70739Y-14598D01*
X70701Y-14666D01*
X71000Y-14964D01*
X71298Y-14666D01*
X71298Y-14737D01*
X71035Y-15000D01*
X71333Y-15298D01*
X71401Y-15260D01*
X71470Y-15087D01*
X71470Y-16938D01*
X71298Y-17110D01*
X71298Y-15333D01*
X71000Y-15035D01*
X70964Y-15070D01*
X70964Y-15000D01*
X70666Y-14701D01*
X70598Y-14739D01*
X70529Y-14912D01*
X70531Y-15099D01*
X70598Y-15260D01*
X70666Y-15298D01*
X70964Y-15000D01*
X70964Y-15070D01*
X70701Y-15333D01*
X70739Y-15401D01*
X70912Y-15470D01*
X71099Y-15468D01*
X71260Y-15401D01*
X71298Y-15333D01*
X71298Y-17110D01*
X71150Y-17259D01*
X71150Y-17050D01*
X71131Y-17004D01*
X71095Y-16969D01*
X71049Y-16950D01*
X71000Y-16949D01*
X70856Y-16950D01*
X70825Y-16981D01*
X70825Y-17175D01*
X71118Y-17175D01*
X71150Y-17143D01*
X71150Y-17050D01*
X71150Y-17259D01*
X71150Y-17259D01*
X71150Y-17256D01*
X71118Y-17225D01*
X70825Y-17225D01*
X70825Y-17418D01*
X70856Y-17450D01*
X70959Y-17450D01*
X70819Y-17589D01*
X70775Y-17589D01*
X70775Y-17418D01*
X70775Y-17225D01*
X70775Y-17175D01*
X70775Y-16981D01*
X70743Y-16950D01*
X70599Y-16949D01*
X70550Y-16950D01*
X70504Y-16969D01*
X70468Y-17004D01*
X70449Y-17050D01*
X70450Y-17143D01*
X70481Y-17175D01*
X70775Y-17175D01*
X70775Y-17225D01*
X70481Y-17225D01*
X70450Y-17256D01*
X70449Y-17349D01*
X70468Y-17395D01*
X70504Y-17430D01*
X70550Y-17449D01*
X70599Y-17450D01*
X70743Y-17450D01*
X70775Y-17418D01*
X70775Y-17589D01*
X70558Y-17589D01*
X70526Y-17602D01*
X70514Y-17615D01*
X70331Y-17615D01*
X70331Y-17536D01*
X70318Y-17505D01*
X70313Y-17500D01*
X70318Y-17495D01*
X70331Y-17463D01*
X70331Y-17430D01*
X70331Y-17036D01*
X70318Y-17005D01*
X70303Y-16990D01*
X70337Y-16990D01*
X70407Y-16961D01*
X70460Y-16907D01*
X70489Y-16837D01*
X70490Y-16762D01*
X70461Y-16692D01*
X70407Y-16639D01*
X70337Y-16610D01*
X70262Y-16609D01*
X70192Y-16638D01*
X70166Y-16665D01*
X70135Y-16665D01*
X70135Y-15408D01*
X70242Y-15364D01*
X70363Y-15243D01*
X70429Y-15085D01*
X70429Y-14914D01*
X70364Y-14757D01*
X70243Y-14636D01*
X70085Y-14570D01*
X69914Y-14570D01*
X69757Y-14635D01*
X69636Y-14756D01*
X69570Y-14914D01*
X69570Y-15085D01*
X69635Y-15242D01*
X69756Y-15363D01*
X69865Y-15408D01*
X69865Y-16800D01*
X69865Y-16968D01*
X69737Y-16968D01*
X69705Y-16981D01*
X69681Y-17004D01*
X69668Y-17036D01*
X69668Y-17069D01*
X69668Y-17463D01*
X69681Y-17494D01*
X69686Y-17499D01*
X69681Y-17504D01*
X69668Y-17536D01*
X69668Y-17569D01*
X69668Y-17963D01*
X69681Y-17994D01*
X69705Y-18018D01*
X69736Y-18031D01*
X69770Y-18031D01*
X70262Y-18031D01*
X70294Y-18018D01*
X70318Y-17995D01*
X70331Y-17963D01*
X70331Y-17930D01*
X70331Y-17885D01*
X70489Y-17885D01*
X70489Y-17941D01*
X70502Y-17973D01*
X70526Y-17997D01*
X70558Y-18009D01*
X70591Y-18010D01*
X70819Y-18010D01*
X70954Y-18145D01*
X70954Y-18145D01*
X70998Y-18174D01*
X71050Y-18185D01*
X71556Y-18185D01*
X71549Y-18200D01*
X71550Y-18293D01*
X71581Y-18325D01*
X71875Y-18325D01*
X71875Y-18317D01*
X71925Y-18317D01*
X71925Y-18325D01*
X72218Y-18325D01*
X72250Y-18293D01*
X72250Y-18200D01*
X72243Y-18185D01*
X72294Y-18185D01*
X72329Y-18220D01*
X72329Y-18220D01*
X72373Y-18249D01*
X72373Y-18249D01*
X72425Y-18260D01*
X72944Y-18260D01*
X73129Y-18445D01*
X73173Y-18474D01*
X73225Y-18485D01*
X73589Y-18485D01*
X73589Y-18491D01*
X73602Y-18523D01*
X73626Y-18547D01*
X73658Y-18559D01*
X73691Y-18560D01*
X74141Y-18560D01*
X74173Y-18547D01*
X74197Y-18523D01*
X74209Y-18491D01*
X74210Y-18469D01*
X74245Y-18445D01*
X74680Y-18010D01*
X74991Y-18010D01*
X75023Y-17997D01*
X75047Y-17973D01*
X75059Y-17941D01*
X75060Y-17908D01*
X75060Y-18655D01*
X72250Y-18655D01*
X72250Y-18499D01*
X72250Y-18406D01*
X72218Y-18375D01*
X71925Y-18375D01*
X71925Y-18568D01*
X71956Y-18600D01*
X72100Y-18600D01*
X72149Y-18599D01*
X72195Y-18580D01*
X72231Y-18545D01*
X72250Y-18499D01*
X72250Y-18655D01*
X71875Y-18655D01*
X71875Y-18568D01*
X71875Y-18375D01*
X71581Y-18375D01*
X71550Y-18406D01*
X71549Y-18499D01*
X71568Y-18545D01*
X71604Y-18580D01*
X71650Y-18599D01*
X71699Y-18600D01*
X71843Y-18600D01*
X71875Y-18568D01*
X71875Y-18655D01*
X69760Y-18655D01*
X69595Y-18622D01*
X69464Y-18535D01*
X69377Y-18404D01*
X69344Y-18240D01*
X69344Y-14759D01*
X69377Y-14595D01*
X69464Y-14464D01*
X69595Y-14377D01*
X69760Y-14344D01*
X76240Y-14344D01*
X76404Y-14377D01*
X76535Y-14464D01*
X76622Y-14595D01*
X76655Y-14760D01*
X76655Y-18239D01*
M02*
