G04 (created by PCBNEW (2013-07-07 BZR 4022)-stable) date 1/16/2014 9:48:59 PM*
%MOIN*%
G04 Gerber Fmt 3.4, Leading zero omitted, Abs format*
%FSLAX34Y34*%
G01*
G70*
G90*
G04 APERTURE LIST*
%ADD10C,0.00590551*%
%ADD11R,0.045X0.025*%
%ADD12C,0.0688976*%
%ADD13R,0.00885827X0.0393701*%
G04 APERTURE END LIST*
G54D10*
G54D11*
X75500Y-17200D03*
X75500Y-17800D03*
X76300Y-17200D03*
X76300Y-17800D03*
X73900Y-18350D03*
X73900Y-17750D03*
X71900Y-17750D03*
X71900Y-18350D03*
X74750Y-17200D03*
X74750Y-17800D03*
X70800Y-17800D03*
X70800Y-17200D03*
G54D10*
G36*
X69753Y-17446D02*
X69852Y-17053D01*
X70147Y-17053D01*
X70246Y-17446D01*
X69753Y-17446D01*
X69753Y-17446D01*
G37*
G36*
X69852Y-17946D02*
X69753Y-17553D01*
X70246Y-17553D01*
X70147Y-17946D01*
X69852Y-17946D01*
X69852Y-17946D01*
G37*
G54D12*
X70000Y-15000D03*
X72000Y-15000D03*
X71000Y-15000D03*
X73000Y-15000D03*
X74000Y-15000D03*
X75000Y-15000D03*
X76000Y-15000D03*
G54D13*
X73314Y-16816D03*
X73157Y-16816D03*
X73000Y-16816D03*
X72842Y-16816D03*
X72685Y-16816D03*
X72685Y-17683D03*
X72842Y-17683D03*
X73000Y-17683D03*
X73157Y-17683D03*
X73314Y-17683D03*
M02*
