G04 (created by PCBNEW (2013-07-07 BZR 4022)-stable) date 1/16/2014 9:48:59 PM*
%MOIN*%
G04 Gerber Fmt 3.4, Leading zero omitted, Abs format*
%FSLAX34Y34*%
G01*
G70*
G90*
G04 APERTURE LIST*
%ADD10C,0.00590551*%
%ADD11C,0.00472441*%
G04 APERTURE END LIST*
G54D10*
G54D11*
X75038Y-16369D02*
X75038Y-16074D01*
X74940Y-16285D01*
X74841Y-16074D01*
X74841Y-16369D01*
X74701Y-16369D02*
X74701Y-16074D01*
X74602Y-16285D01*
X74504Y-16074D01*
X74504Y-16369D01*
X74377Y-16285D02*
X74237Y-16285D01*
X74406Y-16369D02*
X74307Y-16074D01*
X74209Y-16369D01*
X74068Y-16200D02*
X74096Y-16186D01*
X74110Y-16172D01*
X74124Y-16144D01*
X74124Y-16130D01*
X74110Y-16102D01*
X74096Y-16088D01*
X74068Y-16074D01*
X74012Y-16074D01*
X73984Y-16088D01*
X73970Y-16102D01*
X73956Y-16130D01*
X73956Y-16144D01*
X73970Y-16172D01*
X73984Y-16186D01*
X74012Y-16200D01*
X74068Y-16200D01*
X74096Y-16214D01*
X74110Y-16228D01*
X74124Y-16257D01*
X74124Y-16313D01*
X74110Y-16341D01*
X74096Y-16355D01*
X74068Y-16369D01*
X74012Y-16369D01*
X73984Y-16355D01*
X73970Y-16341D01*
X73956Y-16313D01*
X73956Y-16257D01*
X73970Y-16228D01*
X73984Y-16214D01*
X74012Y-16200D01*
X73703Y-16074D02*
X73759Y-16074D01*
X73787Y-16088D01*
X73801Y-16102D01*
X73829Y-16144D01*
X73843Y-16200D01*
X73843Y-16313D01*
X73829Y-16341D01*
X73815Y-16355D01*
X73787Y-16369D01*
X73731Y-16369D01*
X73703Y-16355D01*
X73688Y-16341D01*
X73674Y-16313D01*
X73674Y-16242D01*
X73688Y-16214D01*
X73703Y-16200D01*
X73731Y-16186D01*
X73787Y-16186D01*
X73815Y-16200D01*
X73829Y-16214D01*
X73843Y-16242D01*
X73407Y-16074D02*
X73548Y-16074D01*
X73562Y-16214D01*
X73548Y-16200D01*
X73520Y-16186D01*
X73449Y-16186D01*
X73421Y-16200D01*
X73407Y-16214D01*
X73393Y-16242D01*
X73393Y-16313D01*
X73407Y-16341D01*
X73421Y-16355D01*
X73449Y-16369D01*
X73520Y-16369D01*
X73548Y-16355D01*
X73562Y-16341D01*
X73281Y-16102D02*
X73267Y-16088D01*
X73239Y-16074D01*
X73168Y-16074D01*
X73140Y-16088D01*
X73126Y-16102D01*
X73112Y-16130D01*
X73112Y-16158D01*
X73126Y-16200D01*
X73295Y-16369D01*
X73112Y-16369D01*
X72662Y-16214D02*
X72620Y-16228D01*
X72606Y-16242D01*
X72592Y-16271D01*
X72592Y-16313D01*
X72606Y-16341D01*
X72620Y-16355D01*
X72648Y-16369D01*
X72760Y-16369D01*
X72760Y-16074D01*
X72662Y-16074D01*
X72634Y-16088D01*
X72620Y-16102D01*
X72606Y-16130D01*
X72606Y-16158D01*
X72620Y-16186D01*
X72634Y-16200D01*
X72662Y-16214D01*
X72760Y-16214D01*
X72465Y-16369D02*
X72465Y-16172D01*
X72465Y-16228D02*
X72451Y-16200D01*
X72437Y-16186D01*
X72409Y-16172D01*
X72381Y-16172D01*
X72170Y-16355D02*
X72198Y-16369D01*
X72254Y-16369D01*
X72282Y-16355D01*
X72296Y-16327D01*
X72296Y-16214D01*
X72282Y-16186D01*
X72254Y-16172D01*
X72198Y-16172D01*
X72170Y-16186D01*
X72156Y-16214D01*
X72156Y-16242D01*
X72296Y-16271D01*
X71903Y-16369D02*
X71903Y-16214D01*
X71917Y-16186D01*
X71945Y-16172D01*
X72001Y-16172D01*
X72029Y-16186D01*
X71903Y-16355D02*
X71931Y-16369D01*
X72001Y-16369D01*
X72029Y-16355D01*
X72043Y-16327D01*
X72043Y-16299D01*
X72029Y-16271D01*
X72001Y-16257D01*
X71931Y-16257D01*
X71903Y-16242D01*
X71762Y-16369D02*
X71762Y-16074D01*
X71734Y-16257D02*
X71650Y-16369D01*
X71650Y-16172D02*
X71762Y-16285D01*
X71481Y-16369D02*
X71509Y-16355D01*
X71523Y-16341D01*
X71537Y-16313D01*
X71537Y-16228D01*
X71523Y-16200D01*
X71509Y-16186D01*
X71481Y-16172D01*
X71439Y-16172D01*
X71411Y-16186D01*
X71397Y-16200D01*
X71383Y-16228D01*
X71383Y-16313D01*
X71397Y-16341D01*
X71411Y-16355D01*
X71439Y-16369D01*
X71481Y-16369D01*
X71129Y-16172D02*
X71129Y-16369D01*
X71256Y-16172D02*
X71256Y-16327D01*
X71242Y-16355D01*
X71214Y-16369D01*
X71172Y-16369D01*
X71143Y-16355D01*
X71129Y-16341D01*
X71031Y-16172D02*
X70919Y-16172D01*
X70989Y-16074D02*
X70989Y-16327D01*
X70975Y-16355D01*
X70947Y-16369D01*
X70919Y-16369D01*
X74384Y-16633D02*
X74384Y-16872D01*
X74399Y-16900D01*
X74413Y-16914D01*
X74441Y-16928D01*
X74483Y-16928D01*
X74511Y-16914D01*
X74384Y-16816D02*
X74413Y-16830D01*
X74469Y-16830D01*
X74497Y-16816D01*
X74511Y-16802D01*
X74525Y-16773D01*
X74525Y-16689D01*
X74511Y-16661D01*
X74497Y-16647D01*
X74469Y-16633D01*
X74413Y-16633D01*
X74384Y-16647D01*
X74244Y-16830D02*
X74244Y-16633D01*
X74244Y-16534D02*
X74258Y-16548D01*
X74244Y-16562D01*
X74230Y-16548D01*
X74244Y-16534D01*
X74244Y-16562D01*
X74145Y-16633D02*
X74033Y-16633D01*
X74103Y-16534D02*
X74103Y-16787D01*
X74089Y-16816D01*
X74061Y-16830D01*
X74033Y-16830D01*
X73935Y-16802D02*
X73920Y-16816D01*
X73935Y-16830D01*
X73949Y-16816D01*
X73935Y-16802D01*
X73935Y-16830D01*
X73794Y-16830D02*
X73794Y-16633D01*
X73794Y-16534D02*
X73808Y-16548D01*
X73794Y-16562D01*
X73780Y-16548D01*
X73794Y-16534D01*
X73794Y-16562D01*
X73611Y-16830D02*
X73639Y-16816D01*
X73653Y-16802D01*
X73667Y-16773D01*
X73667Y-16689D01*
X73653Y-16661D01*
X73639Y-16647D01*
X73611Y-16633D01*
X73569Y-16633D01*
X73541Y-16647D01*
X73527Y-16661D01*
X73513Y-16689D01*
X73513Y-16773D01*
X73527Y-16802D01*
X73541Y-16816D01*
X73569Y-16830D01*
X73611Y-16830D01*
X73175Y-16520D02*
X73428Y-16900D01*
X73091Y-16816D02*
X73049Y-16830D01*
X72978Y-16830D01*
X72950Y-16816D01*
X72936Y-16802D01*
X72922Y-16773D01*
X72922Y-16745D01*
X72936Y-16717D01*
X72950Y-16703D01*
X72978Y-16689D01*
X73035Y-16675D01*
X73063Y-16661D01*
X73077Y-16647D01*
X73091Y-16619D01*
X73091Y-16591D01*
X73077Y-16562D01*
X73063Y-16548D01*
X73035Y-16534D01*
X72964Y-16534D01*
X72922Y-16548D01*
X72796Y-16830D02*
X72796Y-16534D01*
X72796Y-16675D02*
X72627Y-16675D01*
X72627Y-16830D02*
X72627Y-16534D01*
X72360Y-16534D02*
X72416Y-16534D01*
X72444Y-16548D01*
X72458Y-16562D01*
X72486Y-16605D01*
X72500Y-16661D01*
X72500Y-16773D01*
X72486Y-16802D01*
X72472Y-16816D01*
X72444Y-16830D01*
X72388Y-16830D01*
X72360Y-16816D01*
X72346Y-16802D01*
X72332Y-16773D01*
X72332Y-16703D01*
X72346Y-16675D01*
X72360Y-16661D01*
X72388Y-16647D01*
X72444Y-16647D01*
X72472Y-16661D01*
X72486Y-16675D01*
X72500Y-16703D01*
X72205Y-16830D02*
X72205Y-16534D01*
X72135Y-16534D01*
X72093Y-16548D01*
X72064Y-16577D01*
X72050Y-16605D01*
X72036Y-16661D01*
X72036Y-16703D01*
X72050Y-16759D01*
X72064Y-16787D01*
X72093Y-16816D01*
X72135Y-16830D01*
X72205Y-16830D01*
X71811Y-16675D02*
X71769Y-16689D01*
X71755Y-16703D01*
X71741Y-16731D01*
X71741Y-16773D01*
X71755Y-16802D01*
X71769Y-16816D01*
X71797Y-16830D01*
X71910Y-16830D01*
X71910Y-16534D01*
X71811Y-16534D01*
X71783Y-16548D01*
X71769Y-16562D01*
X71755Y-16591D01*
X71755Y-16619D01*
X71769Y-16647D01*
X71783Y-16661D01*
X71811Y-16675D01*
X71910Y-16675D01*
X71488Y-16633D02*
X71488Y-16872D01*
X71502Y-16900D01*
X71516Y-16914D01*
X71544Y-16928D01*
X71586Y-16928D01*
X71615Y-16914D01*
X71488Y-16816D02*
X71516Y-16830D01*
X71572Y-16830D01*
X71600Y-16816D01*
X71615Y-16802D01*
X71629Y-16773D01*
X71629Y-16689D01*
X71615Y-16661D01*
X71600Y-16647D01*
X71572Y-16633D01*
X71516Y-16633D01*
X71488Y-16647D01*
X73534Y-17093D02*
X73464Y-17290D01*
X73393Y-17093D01*
X72999Y-16995D02*
X72971Y-16995D01*
X72943Y-17009D01*
X72929Y-17023D01*
X72915Y-17051D01*
X72901Y-17107D01*
X72901Y-17178D01*
X72915Y-17234D01*
X72929Y-17262D01*
X72943Y-17276D01*
X72971Y-17290D01*
X72999Y-17290D01*
X73028Y-17276D01*
X73042Y-17262D01*
X73056Y-17234D01*
X73070Y-17178D01*
X73070Y-17107D01*
X73056Y-17051D01*
X73042Y-17023D01*
X73028Y-17009D01*
X72999Y-16995D01*
X72775Y-17262D02*
X72760Y-17276D01*
X72775Y-17290D01*
X72789Y-17276D01*
X72775Y-17262D01*
X72775Y-17290D01*
X72479Y-17290D02*
X72648Y-17290D01*
X72564Y-17290D02*
X72564Y-16995D01*
X72592Y-17037D01*
X72620Y-17065D01*
X72648Y-17079D01*
X74012Y-17554D02*
X74012Y-17807D01*
X74026Y-17835D01*
X74054Y-17849D01*
X74068Y-17849D01*
X74012Y-17456D02*
X74026Y-17470D01*
X74012Y-17484D01*
X73998Y-17470D01*
X74012Y-17456D01*
X74012Y-17484D01*
X73745Y-17751D02*
X73745Y-17596D01*
X73759Y-17568D01*
X73787Y-17554D01*
X73843Y-17554D01*
X73871Y-17568D01*
X73745Y-17737D02*
X73773Y-17751D01*
X73843Y-17751D01*
X73871Y-17737D01*
X73885Y-17709D01*
X73885Y-17681D01*
X73871Y-17652D01*
X73843Y-17638D01*
X73773Y-17638D01*
X73745Y-17624D01*
X73604Y-17554D02*
X73604Y-17751D01*
X73604Y-17582D02*
X73590Y-17568D01*
X73562Y-17554D01*
X73520Y-17554D01*
X73492Y-17568D01*
X73478Y-17596D01*
X73478Y-17751D01*
X73337Y-17638D02*
X73112Y-17638D01*
X72985Y-17484D02*
X72971Y-17470D01*
X72943Y-17456D01*
X72873Y-17456D01*
X72845Y-17470D01*
X72831Y-17484D01*
X72817Y-17512D01*
X72817Y-17540D01*
X72831Y-17582D01*
X73000Y-17751D01*
X72817Y-17751D01*
X72634Y-17456D02*
X72606Y-17456D01*
X72578Y-17470D01*
X72564Y-17484D01*
X72550Y-17512D01*
X72535Y-17568D01*
X72535Y-17638D01*
X72550Y-17695D01*
X72564Y-17723D01*
X72578Y-17737D01*
X72606Y-17751D01*
X72634Y-17751D01*
X72662Y-17737D01*
X72676Y-17723D01*
X72690Y-17695D01*
X72704Y-17638D01*
X72704Y-17568D01*
X72690Y-17512D01*
X72676Y-17484D01*
X72662Y-17470D01*
X72634Y-17456D01*
X72254Y-17751D02*
X72423Y-17751D01*
X72339Y-17751D02*
X72339Y-17456D01*
X72367Y-17498D01*
X72395Y-17526D01*
X72423Y-17540D01*
X72001Y-17554D02*
X72001Y-17751D01*
X72071Y-17442D02*
X72142Y-17652D01*
X71959Y-17652D01*
M02*
